<?xml version="1.0" encoding="utf-8"?>
<!-- Generator: Adobe Illustrator 23.0.0, SVG Export Plug-In . SVG Version: 6.00 Build 0)  -->
<svg version="1.1" id="圖層_1" xmlns="http://www.w3.org/2000/svg" xmlns:xlink="http://www.w3.org/1999/xlink" x="0px" y="0px"
	 viewBox="0 0 500 500" style="enable-background:new 0 0 500 500;" xml:space="preserve">
<style type="text/css">
	.st0{fill:#FCEE21;}
	.st1{fill:#0071BC;}
</style>
<g>
	<path class="st0" d="M145,272c31.83,0,59.59,17.3,74.47,43c7.32-12.65,11.53-27.33,11.53-43c0-47.5-38.5-86-86-86s-86,38.5-86,86
		c0,15.67,4.21,30.35,11.53,43C85.41,289.3,113.17,272,145,272z"/>
	<circle class="st1" cx="145" cy="315" r="28"/>
	<path class="st0" d="M250.29,400.97l-20.81-59.04c-1.83-9.64-5.26-18.72-10.02-26.93c-14.87,25.7-42.64,43-74.47,43
		s-59.59-17.3-74.47-43C63.21,327.65,59,342.33,59,358c0,47.5,38.5,86,86,86c30.64,0,57.53-16.04,72.76-40.17L250.29,400.97z"/>
</g>
</svg>
