<?xml version="1.0" encoding="utf-8"?>
<!-- Generator: Adobe Illustrator 23.0.0, SVG Export Plug-In . SVG Version: 6.00 Build 0)  -->
<svg version="1.1" id="圖層_1" xmlns="http://www.w3.org/2000/svg" xmlns:xlink="http://www.w3.org/1999/xlink" x="0px" y="0px"
	 viewBox="0 0 500 500" style="enable-background:new 0 0 500 500;" xml:space="preserve">
<style type="text/css">
	.st0{fill:#1E38F7;}
	.st1{fill:#FCEE21;}
	.st2{fill:none;stroke:#1E38F7;stroke-miterlimit:10;}
	.st3{fill:none;stroke:#1C31EA;stroke-miterlimit:10;}
	.st4{fill:none;stroke:#1E38EA;stroke-miterlimit:10;}
	.st5{fill:#5CFF9C;}
</style>
<g>
	<g>
		<g>
			<path class="st0" d="M333.88,313.2h11.16c-4.6,0-8.37-3.21-8.37-7.13v-50.52h-2.79c-4.6,0-8.37,3.21-8.37,7.13v43.39
				C325.51,309.99,329.28,313.2,333.88,313.2z"/>
		</g>
		<g>
			<path class="st0" d="M395.77,323.97l-5.18,5.04c2.14-2.08,6.25-1.48,9.14,1.33l7,6.81l31.93,31.06l5.25,5.11l1.3-1.26
				c2.14-2.08,1.52-6.08-1.36-8.88l-38.93-37.86C402.02,322.49,397.91,321.89,395.77,323.97z"/>
		</g>
		<g>
			<path class="st1" d="M324.82,263.01v2.71h79.51c4.6,0,8.37,3.66,8.37,8.14v-10.85c0-4.48-3.77-8.14-8.37-8.14h-71.14
				C328.58,254.87,324.82,258.53,324.82,263.01z"/>
		</g>
		<path class="st2" d="M412.69,273.86v9.67v22.89c0,3.36-3.77,6.1-8.37,6.1h-71.14"/>
		<g>
			<path class="st2" d="M373.18,299.47v-8.44c0-1.63-1.49-2.97-3.31-2.97h-0.55h-11.99"/>
			<path class="st2" d="M365.46,276.65v8.44c0,1.63,1.49,2.97,3.31,2.97h0.55h11.99"/>
		</g>
		<g>
			<path class="st1" d="M361.78,345.08h-11.16c4.6,0,8.37,3.27,8.37,7.27v9.7v44.26v7.27h2.79c4.6,0,8.37-3.27,8.37-7.27v-53.96
				C370.15,348.35,366.38,345.08,361.78,345.08z"/>
		</g>
		<g>
			<line class="st3" x1="360.38" y1="326.08" x2="292.73" y2="391.88"/>
		</g>
		<g>
			<line class="st4" x1="389.33" y1="349.76" x2="389.33" y2="477"/>
		</g>
	</g>
	<g>
		<g>
			<line class="st4" x1="348.13" y1="242.15" x2="248.66" y2="242"/>
		</g>
		<g>
			<path class="st0" d="M247.33,234.78v-81.57c0-3.97,2.56-7.23,5.73-7.34h-7.69c-3.25,0-5.9,3.31-5.9,7.36v81.57
				c0,4.05,2.66,7.36,5.9,7.36h100.3c0.06,0,0.11-0.01,0.17-0.01h-92.61C249.98,242.13,247.33,238.82,247.33,234.78z"/>
			<g>
				<g>
					<path class="st5" d="M341.42,171.94h-57.96v7.36h57.96c5.44,0,9.89,3.31,9.89,7.36v-7.36
						C351.32,175.25,346.87,171.94,341.42,171.94z"/>
				</g>
				<g>
					<path class="st5" d="M202.89,171.94c-5.44,0-9.89,3.31-9.89,7.36h82.6v-7.36H202.89z"/>
				</g>
				<g>
					<path class="st5" d="M275.6,214.84c0,4.05,2.66,7.36,5.9,7.36h7.87c-3.25,0-5.9-3.31-5.9-7.36v-35.55h-7.87V214.84z"/>
				</g>
				<g>
					<path class="st5" d="M283.47,139.45h-1.97c-3.24,0-5.9,3.31-5.9,7.36v25.13h7.87V139.45z"/>
				</g>
			</g>
		</g>
		<path class="st0" d="M322.23,205.04c0,4.04-2.65,7.35-5.9,7.35h-32.86v9.81h32.87c3.24,0,5.9-3.31,5.9-7.35
			c0-25.95,0-51.9,0-77.85L322.23,205.04z"/>
		<g>
			<line class="st4" x1="322.51" y1="139.44" x2="322.51" y2="215.11"/>
		</g>
	</g>
</g>
</svg>
